<svg xmlns="http://www.w3.org/2000/svg" width="20" height="20" viewBox="0 0 20 20"><defs><style>.a{fill:none;}.b{fill:#fbbc05;}.b,.c,.d,.e{fill-rule:evenodd;}.c{fill:#ea4335;}.d{fill:#34a853;}.e{fill:#4285f4;}</style></defs><g transform="translate(0 0)"><g transform="translate(0 0)"><rect class="a" width="20" height="20" transform="translate(0 0)"/><path class="b" d="M5.448,40.062a5.89,5.89,0,0,1,.3-1.85L2.389,35.648a10.032,10.032,0,0,0,0,8.825L5.744,41.9a5.894,5.894,0,0,1-.3-1.842" transform="translate(-1.153 -30.098)"/><path class="c" d="M16.893,4.076a5.773,5.773,0,0,1,3.674,1.313l2.9-2.9A9.971,9.971,0,0,0,7.938,5.55L11.3,8.114a5.88,5.88,0,0,1,5.6-4.038" transform="translate(-6.702 0)"/><path class="d" d="M16.893,79.919a5.88,5.88,0,0,1-5.6-4.038L7.938,78.445a9.947,9.947,0,0,0,8.955,5.55,9.508,9.508,0,0,0,6.5-2.483l-3.187-2.464a6.172,6.172,0,0,1-3.313.871" transform="translate(-6.702 -64.068)"/><path class="e" d="M74.981,54.175a8.253,8.253,0,0,0-.227-1.811h-9.3v3.849h5.352a4.487,4.487,0,0,1-2.038,2.978l3.187,2.464a9.909,9.909,0,0,0,3.023-7.48" transform="translate(-55.267 -44.212)"/></g></g></svg>